<?xml version="1.0" encoding="utf-8"?>
<!-- Generator: Adobe Illustrator 21.0.0, SVG Export Plug-In . SVG Version: 6.00 Build 0)  -->
<svg version="1.1" id="Layer_1" xmlns="http://www.w3.org/2000/svg" xmlns:xlink="http://www.w3.org/1999/xlink" x="0px" y="0px"
	 viewBox="0 0 24 24" style="enable-background:new 0 0 24 24;" xml:space="preserve">
<style type="text/css">
	.st0{fill:#FFFFFF;}
</style>
<path class="st0" d="M13,14.3l3.1-3.1c0.2-0.2,0.5-0.2,0.7,0c0.2,0.2,0.2,0.5,0,0.7l-4,4c-0.2,0.2-0.5,0.2-0.7,0l-4-4
	c-0.2-0.2-0.2-0.5,0-0.7c0.2-0.2,0.5-0.2,0.7,0l3.1,3.1V3.5C12,3.2,12.2,3,12.5,3S13,3.2,13,3.5V14.3z M20,15.5
	c0-0.3,0.2-0.5,0.5-0.5s0.5,0.2,0.5,0.5v3c0,1.4-1.1,2.5-2.5,2.5h-12C5.1,21,4,19.9,4,18.5v-3C4,15.2,4.2,15,4.5,15S5,15.2,5,15.5v3
	C5,19.3,5.7,20,6.5,20h12c0.8,0,1.5-0.7,1.5-1.5V15.5z"/>
</svg>
